<svg width="40" height="40" viewBox="0 0 40 40" fill="none" xmlns="http://www.w3.org/2000/svg">
<path d="M13.3333 20.0867C16.6583 20.0867 19.1666 17.5783 19.1666 14.2533C19.1666 10.9283 16.6583 8.42 13.3333 8.42C10.0083 8.42 7.49992 10.9283 7.49992 14.2533C7.49992 17.5783 10.0083 20.0867 13.3333 20.0867ZM14.9999 21.6667H11.6666C7.07159 21.6667 3.33325 25.405 3.33325 30V31.6667H23.3333V30C23.3333 25.405 19.5949 21.6667 14.9999 21.6667ZM33.8216 13.8217L29.9999 17.6433L26.1783 13.8217L23.8216 16.1783L27.6416 19.9983L23.8199 23.82L26.1766 26.1767L29.9983 22.355L33.8216 26.1783L36.1783 23.8217L32.3566 20L36.1783 16.1783L33.8216 13.8217Z" fill="#ED1D27"/>
</svg>
