<svg width="16" height="16" viewBox="0 0 16 16" fill="none" xmlns="http://www.w3.org/2000/svg">
<path d="M11.9999 14.6666H2.22214C1.98639 14.6666 1.7603 14.573 1.5936 14.4063C1.4269 14.2396 1.33325 14.0135 1.33325 13.7777V3.99997C1.33325 3.76422 1.4269 3.53813 1.5936 3.37143C1.7603 3.20473 1.98639 3.11108 2.22214 3.11108H6.66659V3.99997H2.22214V13.7777H11.9999V9.33331H12.8888V13.7777C12.8888 14.0135 12.7952 14.2396 12.6285 14.4063C12.4618 14.573 12.2357 14.6666 11.9999 14.6666Z" fill="#67748E"/>
<path d="M7.99988 1.33331C7.88201 1.33331 7.76896 1.38014 7.68561 1.46349C7.60227 1.54684 7.55544 1.65988 7.55544 1.77776C7.55544 1.89563 7.60227 2.00868 7.68561 2.09203C7.76896 2.17538 7.88201 2.2222 7.99988 2.2222H13.151L6.99544 8.37776C6.94892 8.4176 6.91113 8.46663 6.88445 8.52177C6.85777 8.57691 6.84278 8.63697 6.84042 8.69818C6.83805 8.75939 6.84837 8.82042 6.87071 8.87746C6.89306 8.93449 6.92695 8.98629 6.97026 9.0296C7.01358 9.07292 7.06537 9.10681 7.12241 9.12915C7.17944 9.1515 7.24048 9.16181 7.30169 9.15945C7.3629 9.15708 7.42295 9.14209 7.47809 9.11541C7.53323 9.08874 7.58226 9.05095 7.62211 9.00442L13.7777 2.84887V7.99998C13.7777 8.11785 13.8245 8.2309 13.9078 8.31425C13.9912 8.3976 14.1042 8.44442 14.2221 8.44442C14.34 8.44442 14.453 8.3976 14.5364 8.31425C14.6197 8.2309 14.6666 8.11785 14.6666 7.99998V1.33331H7.99988Z" fill="#67748E"/>
</svg>
