<svg width="40" height="40" viewBox="0 0 40 40" fill="none" xmlns="http://www.w3.org/2000/svg">
<path fill-rule="evenodd" clip-rule="evenodd" d="M15 28.3333L20 23.4333C19.35 23.3667 18.8667 23.3333 18.3333 23.3333C13.8833 23.3333 5 25.5667 5 30V33.3333H20L15 28.3333ZM18.3333 20C22.0167 20 25 17.0167 25 13.3333C25 9.65 22.0167 6.66667 18.3333 6.66667C14.65 6.66667 11.6667 9.65 11.6667 13.3333C11.6667 17.0167 14.65 20 18.3333 20Z" fill="#40B93C"/>
<path fill-rule="evenodd" clip-rule="evenodd" d="M25.7833 34.1667L20 28.3333L22.3333 25.9833L25.7833 29.45L34.3333 20.8333L36.6667 23.1833L25.7833 34.1667Z" fill="#40B93C"/>
</svg>
