<svg width="40" height="40" viewBox="0 0 40 40" fill="none" xmlns="http://www.w3.org/2000/svg">
<path d="M28.3333 18.3333C28.9 18.3333 29.45 18.4 30 18.4833V10.45L17.5 5L5 10.45V18.6333C5 26.2 10.3333 33.2833 17.5 35C18.4167 34.7833 19.3 34.4667 20.1667 34.0833C19.0167 32.45 18.3333 30.4667 18.3333 28.3333C18.3333 22.8167 22.8167 18.3333 28.3333 18.3333Z" fill="#4493D6"/>
<path d="M28.3333 21.6667C24.65 21.6667 21.6666 24.65 21.6666 28.3333C21.6666 32.0167 24.65 35 28.3333 35C32.0166 35 35 32.0167 35 28.3333C35 24.65 32.0166 21.6667 28.3333 21.6667ZM28.3333 23.9667C29.3666 23.9667 30.2 24.8167 30.2 25.8333C30.2 26.85 29.35 27.7 28.3333 27.7C27.3166 27.7 26.4666 26.85 26.4666 25.8333C26.4666 24.8167 27.3 23.9667 28.3333 23.9667ZM28.3333 32.9167C26.7833 32.9167 25.4333 32.15 24.6 30.9667C24.6833 29.7667 27.1166 29.1667 28.3333 29.1667C29.55 29.1667 31.9833 29.7667 32.0666 30.9667C31.2333 32.15 29.8833 32.9167 28.3333 32.9167Z" fill="#4493D6"/>
</svg>
