<svg width="40" height="40" viewBox="0 0 40 40" fill="none" xmlns="http://www.w3.org/2000/svg">
<path d="M11.6667 28.3333C13.9679 28.3333 15.8333 26.4678 15.8333 24.1667C15.8333 21.8655 13.9679 20 11.6667 20C9.36548 20 7.5 21.8655 7.5 24.1667C7.5 26.4678 9.36548 28.3333 11.6667 28.3333Z" stroke="#F68615" stroke-width="2" stroke-linecap="round" stroke-linejoin="round"/>
<path d="M28.3334 28.3333C30.6346 28.3333 32.5001 26.4678 32.5001 24.1667C32.5001 21.8655 30.6346 20 28.3334 20C26.0322 20 24.1667 21.8655 24.1667 24.1667C24.1667 26.4678 26.0322 28.3333 28.3334 28.3333Z" stroke="#F68615" stroke-width="2" stroke-linecap="round" stroke-linejoin="round"/>
<path d="M20 11.6667C22.3012 11.6667 24.1667 9.80118 24.1667 7.5C24.1667 5.19881 22.3012 3.33333 20 3.33333C17.6989 3.33333 15.8334 5.19881 15.8334 7.5C15.8334 9.80118 17.6989 11.6667 20 11.6667Z" stroke="#F68615" stroke-width="2" stroke-linecap="round" stroke-linejoin="round"/>
<path d="M20 36.6667C20 32.0642 16.2692 28.3333 11.6667 28.3333C7.06421 28.3333 3.33337 32.0642 3.33337 36.6667" stroke="#F68615" stroke-width="2" stroke-linecap="round" stroke-linejoin="round"/>
<path d="M36.6667 36.6667C36.6667 32.0642 32.9358 28.3333 28.3333 28.3333C23.7308 28.3333 20 32.0642 20 36.6667" stroke="#F68615" stroke-width="2" stroke-linecap="round" stroke-linejoin="round"/>
<path d="M28.3334 20C28.3334 15.3975 24.6026 11.6667 20.0001 11.6667C15.3976 11.6667 11.6667 15.3975 11.6667 20" stroke="#F68615" stroke-width="2" stroke-linecap="round" stroke-linejoin="round"/>
</svg>
