<svg width="40" height="40" viewBox="0 0 40 40" fill="none" xmlns="http://www.w3.org/2000/svg">
<path d="M25.8333 18.3333C27.214 18.3333 28.3333 17.214 28.3333 15.8333C28.3333 14.4526 27.214 13.3333 25.8333 13.3333C24.4526 13.3333 23.3333 14.4526 23.3333 15.8333C23.3333 17.214 24.4526 18.3333 25.8333 18.3333Z" fill="#CCE314"/>
<path d="M14.1667 18.3333C15.5474 18.3333 16.6667 17.214 16.6667 15.8333C16.6667 14.4526 15.5474 13.3333 14.1667 13.3333C12.786 13.3333 11.6667 14.4526 11.6667 15.8333C11.6667 17.214 12.786 18.3333 14.1667 18.3333Z" fill="#CCE314"/>
<path d="M19.9833 3.33333C10.7833 3.33333 3.33331 10.8 3.33331 20C3.33331 29.2 10.7833 36.6667 19.9833 36.6667C29.2 36.6667 36.6666 29.2 36.6666 20C36.6666 10.8 29.2 3.33333 19.9833 3.33333ZM20 33.3333C12.6333 33.3333 6.66665 27.3667 6.66665 20C6.66665 12.6333 12.6333 6.66666 20 6.66666C27.3666 6.66666 33.3333 12.6333 33.3333 20C33.3333 27.3667 27.3666 33.3333 20 33.3333ZM20 23.3333C16.1166 23.3333 12.8 25.75 11.4666 29.1667H14.25C15.4 27.1833 17.5333 25.8333 20 25.8333C22.4666 25.8333 24.5833 27.1833 25.75 29.1667H28.5333C27.2 25.75 23.8833 23.3333 20 23.3333Z" fill="#CCE314"/>
</svg>
